<svg id="Layer_3" data-name="Layer 3" xmlns="http://www.w3.org/2000/svg" xmlns:xlink="http://www.w3.org/1999/xlink" viewBox="0 0 1920 1012.58"><defs><style>.cls-1{fill:url(#linear-gradient);}.cls-2{fill:#b22c68;}.cls-3{fill:#dbd2e9;}.cls-4{fill:#e74167;}.cls-5{fill:#f5b5ac;}.cls-6{fill:#f0878a;}.cls-7{fill:#72a3e9;}.cls-8{fill:#d1521e;}.cls-9{fill:#bc4920;}.cls-10{fill:#e94e70;}.cls-11{fill:#6e141d;}.cls-12{fill:#fff;}.cls-13{fill:#902231;}.cls-14{fill:#c53753;}.cls-15{fill:#c44563;}.cls-16{fill:#97cbf9;}.cls-17{fill:#5e4494;}.cls-18{fill:#7661a6;}.cls-19{fill:#c1deff;}.cls-20{fill:#604d96;}.cls-21{fill:#e7e7e8;}.cls-22{fill:#b6b6b7;}.cls-23{fill:#ecebed;}</style><linearGradient id="linear-gradient" x1="-42.45" y1="1133.42" x2="1932.4" y2="437.95" gradientUnits="userSpaceOnUse"><stop offset="0" stop-color="#4a3fab"/><stop offset="1" stop-color="#5667c3"/></linearGradient></defs><path id="Tracé_83" data-name="Tracé 83" class="cls-1" d="M0,1194.65V367.52s319.68-94,869,88.16c370.71,121.81,690.39,164.73,1050.36-54.53,1.35,0,0,792.34,0,792.34Z" transform="translate(0 -182.08)"/><path class="cls-2" d="M811.56,310.07c10.07,1.42,15.39-.4,18.49-4.4-.48-.34-.76-.52-.76-.52s-1.74-.68-1.26-1.94a1.08,1.08,0,0,1,.24-.39l-1.34-.67c-3.92,3.66-11.56,2.76-19.47-.66A40.81,40.81,0,0,0,811.56,310.07Z" transform="translate(0 -182.08)"/><path class="cls-3" d="M852.43,321.68c-4.81-9-17-16.09-21-18.24a14.75,14.75,0,0,1-1.4,2.23c3.16,2.23,15.35,11,19.09,16.5,3.55,5.2,12.66,19.86,15,20.9s1.59-2,1.59-2A124.9,124.9,0,0,1,852.43,321.68Z" transform="translate(0 -182.08)"/><path class="cls-2" d="M831.45,303.44c-.83-.45-1.31-.68-1.31-.68s-1.24-.64-1.87.06a1.08,1.08,0,0,0-.24.39c-.48,1.26,1.26,1.94,1.26,1.94s.28.18.76.52A14.75,14.75,0,0,0,831.45,303.44Z" transform="translate(0 -182.08)"/><path class="cls-4" d="M755.3,298.48a21,21,0,0,0,5.67,1c5.93-1.83,22,4.62,43,9.18a.15.15,0,0,0,0-.06l-.72-3.7,3.15,1.39.82,2.94,0,.11c1.52.3,3,.55,4.31.73a40.81,40.81,0,0,1-4.1-8.58c-.7-.3-1.41-.63-2.11-1-6.92-3.36-12.86-8.81-16.07-12.11l-.1-.1a23.78,23.78,0,0,1-2.48-2.7,45.16,45.16,0,0,1-4.55-7,31.11,31.11,0,0,0-9.26-10.34s-21.1,5.36-24.34,18.2C746.66,293.94,751.21,297.12,755.3,298.48Z" transform="translate(0 -182.08)"/><path class="cls-5" d="M808.91,273.15c4.2-6.12,5.23-10.54,5.43-11.65a6.65,6.65,0,0,1-6.06-1.72,9.37,9.37,0,0,1-2.32-3.69L813,254.7a6,6,0,0,1,2.45-6.33c3.66-2.48,3.22-5.13.15-7.38-2.77-2-7.64-8.45-8.9-14.85a48.59,48.59,0,0,0-2.08-7.63,8.78,8.78,0,0,1-2.22.85c-7.66,2.82-17.35,1.06-21.42,1.22s-9.94.17-8.17,5.63c.88,2.73,5.49,13.69,4.69,17.47-.61,2.88-8.36,4.08-10.88,1.86-.79-.69-1.51-2.1-2.8-3.66-5.47-6.58-8.9-5.54-8.9-5.54a2.65,2.65,0,0,0-1.21.71,1.42,1.42,0,0,1-.12.13l-.06.08c-1.23,1.54-1,4.49-.83,6.38.28,2.42,0,4,.62,6.17s2.93,7.27,6.16,8.17,5.73-2.11,5.73-2.11c.29.17,7.64,12.37,7.64,12.38a31.11,31.11,0,0,1,9.26,10.34,45.16,45.16,0,0,0,4.55,7s.89,1.08,2.48,2.7l.1.1c2.74,2.55,6,4.19,9.66,3.82a29.61,29.61,0,0,0,6.17-1.32,1.49,1.49,0,0,0,0-.19S803.74,283.35,808.91,273.15Zm-14.62-38.83a2.42,2.42,0,1,1,1.83,2.89A2.42,2.42,0,0,1,794.29,234.32Z" transform="translate(0 -182.08)"/><path class="cls-6" d="M814.34,261.5c-.2,1.11-1.23,5.53-5.43,11.65-5.17,10.2-3.81,17.58-3.81,17.58a1.49,1.49,0,0,1,0,.19,26.11,26.11,0,0,0,9.32-5.15c1.61-1.54,1-6,1.1-8.56v0a2.6,2.6,0,0,1,.43-1.58c4.44-3.87,7-9.17,8.54-14h0a47,47,0,0,0,2.11-12c1.51-17.85-10.19-39.46-10.19-39.46h0v0l-.1-.21a2.78,2.78,0,0,0-.12-.26c-.64-1.17-2.49-3.6-5,1.81a14.56,14.56,0,0,1-6.49,7,48.59,48.59,0,0,1,2.08,7.63c1.26,6.4,6.13,12.82,8.9,14.85,3.07,2.25,3.51,4.9-.15,7.38A6,6,0,0,0,813,254.7l6.74-1.32a5.32,5.32,0,0,1-.93,5.73,8.23,8.23,0,0,1-2.4,1.79A11.55,11.55,0,0,1,814.34,261.5Zm0-32.68a2.42,2.42,0,1,1,1.84,2.89A2.42,2.42,0,0,1,814.37,228.82Z" transform="translate(0 -182.08)"/><path class="cls-7" d="M967.24,457.37a5.61,5.61,0,0,0,2.59,6.18,5.12,5.12,0,0,0,1.42.61l1.66.46a4.6,4.6,0,0,1-.58-3.62l20-82,5.25-21.57a13.84,13.84,0,0,1,5.5-8.06l102.23-71.63a4.38,4.38,0,0,1,4-.57l.09-.26-2.34-2.33c-1.92-1.93-4.35-1.82-7.81.44L998.44,345.72a15.46,15.46,0,0,0-6.2,9L987,376.1l-.62,2.59-1.06,4.3L984,388.53l-12,49.18h0l-4.55,18.65Z" transform="translate(0 -182.08)"/><path class="cls-7" d="M959.53,460l10.3,3.57h0a5.61,5.61,0,0,1-2.59-6.18l.24-1L896.78,434c-2.91.38-5.85.74-8.47,1.24Z" transform="translate(0 -182.08)"/><path class="cls-3" d="M805.11,290.92a44.46,44.46,0,0,0,2.35,10.57c7.91,3.42,15.55,4.32,19.47.66a7.62,7.62,0,0,0,2-3.22c2.64-7.55-12.94-21.3-13.44-21.72-.14,2.52.51,7-1.1,8.56A26.11,26.11,0,0,1,805.11,290.92Z" transform="translate(0 -182.08)"/><path class="cls-8" d="M743.64,188.19c-2.17,4.62-2.91,10.15-.34,14.62,2.28,4,7.72,4.71,8.91,4.82a25,25,0,0,1,5.42-6.9A31.31,31.31,0,0,1,769,194.28a10.67,10.67,0,0,0-2.08-6.7,15.87,15.87,0,0,0-9.63-5.4C753.52,181.57,745.8,183.59,743.64,188.19Z" transform="translate(0 -182.08)"/><path class="cls-8" d="M752.21,207.63c-4.05,7.7-2.63,15.67-1.67,20.61,1.24,6.43,3.09,8.94,3.09,8.94a1.42,1.42,0,0,0,.12-.13,2.65,2.65,0,0,1,1.21-.71s3.43-1,8.9,5.54c1.29,1.56,2,3,2.8,3.66,2.52,2.22,10.27,1,10.88-1.86.8-3.78-3.81-14.74-4.69-17.47-1.77-5.46,4.09-5.45,8.17-5.63s13.76,1.6,21.42-1.22a8.78,8.78,0,0,0,2.22-.85c-.22-.54-.43-1.08-.67-1.61a49.23,49.23,0,0,0-24.22-24.62,40.18,40.18,0,0,0-10.8,2,31.31,31.31,0,0,0-11.34,6.45A25,25,0,0,0,752.21,207.63Z" transform="translate(0 -182.08)"/><path class="cls-9" d="M798.19,195.39a40.61,40.61,0,0,0-18.42-3.11A49.23,49.23,0,0,1,804,216.9c.24.53.45,1.07.67,1.61a14.56,14.56,0,0,0,6.49-7c2.53-5.41,4.38-3,5-1.81C815.2,207.82,811,201.05,798.19,195.39Z" transform="translate(0 -182.08)"/><path class="cls-10" d="M790.61,367.31c.1,3.38,1.5,44.8,20.92,66.33,8.74-2.89,20.32-7.69,35.08-12.71l12.91-5,2.43,3.84c-5.09-24.49,2.51-48.94-1.25-71.23-4.35-20.18-26.3-18.79-40.46-29.08a33.5,33.5,0,0,1-8.68-9.38c-1.35-.18-2.79-.43-4.31-.73.4,1.52,5.29,19.91,10.46,26.82,4.45,5.94,17.38,22,17.48,24.4s-3.15,0-3.15,0a164.58,164.58,0,0,0-16.49-22.17c-9.69-10.79-11.47-28.63-11.57-29.74-21-4.56-37.08-11-43-9.18a21,21,0,0,1-5.67-1c-.51.22-16.64,7.7-17,68-.12,17.33,0,30.68.55,41.48,0,0,0,0,0,.05.46,2.35,15,77,59,61.93a191.66,191.66,0,0,0,42.6-20.44,54.21,54.21,0,0,0-8.65-3.89,37.18,37.18,0,0,1-20.29-12c-11.88,3.95-18.52,4.39-20.72-2.83C787,418.34,790.57,383.22,790.61,367.31Z" transform="translate(0 -182.08)"/><path class="cls-11" d="M797.18,232.49a2.42,2.42,0,1,0,1.83,2.89A2.42,2.42,0,0,0,797.18,232.49Z" transform="translate(0 -182.08)"/><path class="cls-11" d="M817.26,227a2.42,2.42,0,1,0,1.84,2.89A2.42,2.42,0,0,0,817.26,227Z" transform="translate(0 -182.08)"/><path class="cls-11" d="M813,254.7,806,256.09a9.37,9.37,0,0,0,2.32,3.69c3.89-3.39,10.57-.67,10.57-.67a5.32,5.32,0,0,0,.93-5.73Z" transform="translate(0 -182.08)"/><path class="cls-12" d="M789.28,288.42c3.21,3.3,9.15,8.75,16.07,12.11.7.33,1.41.66,2.11,1a44.46,44.46,0,0,1-2.35-10.57,29.61,29.61,0,0,1-6.17,1.32C795.26,292.61,792,291,789.28,288.42Z" transform="translate(0 -182.08)"/><path class="cls-13" d="M814.34,261.5a11.55,11.55,0,0,0,2.11-.6,8.23,8.23,0,0,0,2.4-1.79s-6.68-2.72-10.57.67A6.65,6.65,0,0,0,814.34,261.5Z" transform="translate(0 -182.08)"/><path class="cls-14" d="M738.82,408.05c1.46,27.39,6,38.43,18.24,56.57,16.29,24.23,39.36,18.22,65.27,5.36,0,0,13.53-6.53,28.3-13.77a72.72,72.72,0,0,0-10.16-6.67A191.66,191.66,0,0,1,797.87,470C753.81,485,739.28,410.4,738.82,408.05Z" transform="translate(0 -182.08)"/><path class="cls-2" d="M816,275.61a2.6,2.6,0,0,0-.43,1.58v0c.5.42,16.08,14.17,13.44,21.72a7.62,7.62,0,0,1-2,3.22l1.34.67c.63-.7,1.87-.06,1.87-.06s.48.23,1.31.68c1.56-3.08,2.36-7,3.09-11.53a21.26,21.26,0,0,0,.07-5.81c-1.27-11.45-9.8-24-10.12-24.46C823,266.44,820.39,271.74,816,275.61Z" transform="translate(0 -182.08)"/><path class="cls-4" d="M803.25,304.9l.72,3.7a.15.15,0,0,1,0,.06l3.07.64.2,0,0-.11-.82-2.94Z" transform="translate(0 -182.08)"/><path class="cls-12" d="M807.05,309.3l-3.07-.64c.1,1.11,1.88,18.95,11.57,29.74A164.58,164.58,0,0,1,832,360.57s3.26,2.43,3.15,0-13-18.46-17.48-24.4c-5.17-6.91-10.06-25.3-10.46-26.82Z" transform="translate(0 -182.08)"/><path class="cls-15" d="M906.73,373c-5-4.5-9.89-10-12.4-15.72-29.8-74-59.55-71.14-59.55-71.14h-.17a21.26,21.26,0,0,1-.07,5.81c-.73,4.5-1.53,8.45-3.09,11.53,4,2.15,16.17,9.26,21,18.24a124.9,124.9,0,0,0,13.3,19.37s.73,3.06-1.59,2-11.45-15.7-15-20.9c-3.74-5.48-15.93-14.27-19.09-16.5-3.1,4-8.42,5.82-18.49,4.4a33.5,33.5,0,0,0,8.68,9.38c14.16,10.29,36.11,8.9,40.46,29.08,3.76,22.29-3.84,46.74,1.25,71.23l1.5-.43C882,412,877.64,404.89,893.4,401.4c.59-.13,1.18-.25,1.78-.36,14.14-9.77,22.81-14.53,27-16.65A107,107,0,0,1,906.73,373Z" transform="translate(0 -182.08)"/><path class="cls-14" d="M790.61,367.31c0,15.91-3.6,51,.2,63.5,2.2,7.22,8.84,6.78,20.72,2.83C792.11,412.11,790.71,370.69,790.61,367.31Z" transform="translate(0 -182.08)"/><path class="cls-10" d="M811.53,433.64a37.18,37.18,0,0,0,20.29,12,54.21,54.21,0,0,1,8.65,3.89C855.81,439.61,864,431,868,429.35l-6-9.59-2.43-3.84-12.91,5C831.85,426,820.27,430.75,811.53,433.64Z" transform="translate(0 -182.08)"/><path class="cls-14" d="M868,429.35c-4,1.66-12.19,10.26-27.53,20.19a72.72,72.72,0,0,1,10.16,6.67c8-3.94,16.37-8.08,23.13-11.5l2.9-1.63-1.8-2.85Z" transform="translate(0 -182.08)"/><path class="cls-14" d="M850.63,456.21c-14.77,7.24-28.3,13.77-28.3,13.77,9.29,11.47,40.45,42.39,75.56,54.29,0,0-.07-3.83,3.67-10.91-16.31-8-21.68-16.87-34.72-38.83A66.55,66.55,0,0,0,850.63,456.21Z" transform="translate(0 -182.08)"/><path class="cls-5" d="M862,419.76l6,9.59c6.75-2.79,15.85-6,22.07-4.28s17.64,2.53,25.67-1.74a129.89,129.89,0,0,0,1.54-14.93s17.4-.91,17.66-3.43-21-7.47-39.76-3.93c-.6.11-1.19.23-1.78.36C877.64,404.89,882,412,863.45,419.33Z" transform="translate(0 -182.08)"/><path class="cls-6" d="M868,429.35l6.86,10.88c1-.47,1.9-.91,2.8-1.34a57.22,57.22,0,0,1,8.49-3.2c.69-.16,1.42-.31,2.16-.45,2.62-.5,5.56-.86,8.47-1.24,8.32-1.08,16.62-2.21,18-6.48a33.06,33.06,0,0,0,1-4.19c-8,4.27-19.44,3.43-25.67,1.74S874.75,426.56,868,429.35Z" transform="translate(0 -182.08)"/><path class="cls-10" d="M933.69,353.77c-27.47,2-39.36,3.46-39.36,3.46,2.51,5.75,7.41,11.22,12.4,15.72.54,0,17.24.53,26.77-2.14,1.27-.35,2.41-.72,3.46-1.06l-2-10.35Z" transform="translate(0 -182.08)"/><path class="cls-10" d="M873.76,444.71c-6.76,3.42-15.13,7.56-23.13,11.5a66.55,66.55,0,0,1,16.21,18.32c13,22,18.41,30.79,34.72,38.83,4.44-8.42,14.24-21.43,35.92-38-35-10.17-59.81-36.42-59.81-36.42v0c-.9.43-1.84.87-2.8,1.34l1.8,2.85Z" transform="translate(0 -182.08)"/><path class="cls-15" d="M877.66,438.89v0s24.84,26.25,59.81,36.42c6.29-4.82,13.59-9.95,22-15.34l-71.22-24.75c-.74.14-1.47.29-2.16.45A57.22,57.22,0,0,0,877.66,438.89Z" transform="translate(0 -182.08)"/><path class="cls-14" d="M906.73,373a107,107,0,0,0,15.49,11.44c2.17-1.06,3.17-1.45,3.17-1.45s6.88-2,13.42-3.68h0l-1.85-9.5c-1.05.34-2.19.71-3.46,1.06C924,373.48,907.27,373,906.73,373Z" transform="translate(0 -182.08)"/><path class="cls-16" d="M915.74,423.33a33.06,33.06,0,0,1-1,4.19c-1.37,4.27-9.67,5.4-18,6.48l70.7,22.37L972,437.72a9.15,9.15,0,0,1-10.72,3.78l-30.79-10.61a2.39,2.39,0,0,1-.6-4.21l46.93-33.11-.3-.41a3.45,3.45,0,0,1-1.25.6s-2.71-.05-7.13-2.6L953,401.67a8.14,8.14,0,0,1-7.35,1l-20.15-7a2.42,2.42,0,0,1-.52-4.33l21.19-13.84v0c-2.06.46-4.68,1.11-7.35,1.8h0c-6.54,1.71-13.42,3.68-13.42,3.68s-1,.39-3.17,1.45c-4.23,2.12-12.9,6.88-27,16.65,18.72-3.54,40,1.5,39.76,3.93s-17.66,3.43-17.66,3.43A129.89,129.89,0,0,1,915.74,423.33Z" transform="translate(0 -182.08)"/><path class="cls-5" d="M935,359.4l2,10.35c6.95-2.32,9.8-4.21,18.41-.83a310,310,0,0,0,31,9.77l.62-2.59C972.92,366.88,962.37,355.45,935,359.4Z" transform="translate(0 -182.08)"/><path class="cls-7" d="M925,391.31a2.42,2.42,0,0,0,.52,4.33l20.15,7a8.14,8.14,0,0,0,7.35-1l15.17-10.51a41.84,41.84,0,0,1-8.82-7s-5.29-7.82-10-7.26c-.74.09-1.84.3-3.16.58v0Z" transform="translate(0 -182.08)"/><path class="cls-6" d="M937,369.75l1.85,9.5c2.67-.69,5.29-1.34,7.35-1.8,1.32-.28,2.42-.49,3.16-.58,4.74-.56,10,7.26,10,7.26a41.84,41.84,0,0,0,8.82,7c4.42,2.55,7.13,2.6,7.13,2.6a3.45,3.45,0,0,0,1.25-.6c2.81-2.41-8.8-8.28-6-12.72,1.85-2.9,14.8,2.55,14.8,2.55l1.06-4.3a310,310,0,0,1-31-9.77C946.76,365.54,943.91,367.43,937,369.75Z" transform="translate(0 -182.08)"/><path class="cls-7" d="M929.92,426.68a2.39,2.39,0,0,0,.6,4.21l30.79,10.61A9.15,9.15,0,0,0,972,437.72h0l12-49.18-7.15,5Z" transform="translate(0 -182.08)"/><path class="cls-17" d="M1124.42,463.72c-1.24-.14-1.83-.16-1.83-.16-23.73.3-61.32,52.7-119.07,64.17s-102-14.37-102-14.37c-3.74,7.08-3.67,10.91-3.67,10.91,6.73,5.74,25.18,13,25.18,13,52.48,14.51,63.83,11.6,94.68,5s79.92-43.25,92.71-54.59c.27-.24.55-.47.83-.68l46.91,73.4a49.37,49.37,0,0,0,11.43,1.89,43.68,43.68,0,0,0,9.14-.44,46.52,46.52,0,0,1-2-4.88c-5.34-15.5-19.18-41.66-27.49-49.37-3.24-3-9.3-11.66-15.46-23.32,15.22,2.35,34.39,9.24,52.06,13.29,29.27,6.73,102.45,14.38,102.45,14.38a49.48,49.48,0,0,0,3.59-5.09,45.29,45.29,0,0,0,4.81-10.62c-22.68-4.66-44.94-7.16-64.19-7-31,.19-49.43-7.92-74.61-16.63C1138.81,465.93,1128.33,464.18,1124.42,463.72Z" transform="translate(0 -182.08)"/><path class="cls-18" d="M1114.81,417.71A280.63,280.63,0,0,0,1075,422h0c-5.23,10.62-31.17,31.58-47.25,39.22s-36.4,23.48-77.81,16.88a103.21,103.21,0,0,1-12.5-2.82c-21.68,16.6-31.48,29.61-35.92,38,0,0,44.2,25.85,102,14.37s95.34-63.87,119.07-64.17c0,0,.59,0,1.83.16,3.91.46,14.39,2.21,33.53,8.82,25.18,8.71,43.57,16.82,74.61,16.63,19.25-.12,41.51,2.38,64.19,7a46.83,46.83,0,0,0,.92-23.15,36.78,36.78,0,0,0-2.2-7.3c-39-14.51-151.11-46.95-151.11-46.95-6.87-11.86-14.25-20.83-27.17-33.23a27.82,27.82,0,0,0-19.92-7.81C1101.48,379.13,1115.48,386,1114.81,417.71Z" transform="translate(0 -182.08)"/><path class="cls-16" d="M970.55,380.44c-2.8,4.44,8.81,10.31,6,12.72l.3.41,7.15-5,1.35-5.54S972.4,377.54,970.55,380.44Z" transform="translate(0 -182.08)"/><path class="cls-19" d="M1088.31,379.13l23.9-96.66a4.44,4.44,0,0,0-2.9-5.31,4.38,4.38,0,0,0-4,.57L1003,349.36a13.84,13.84,0,0,0-5.5,8.06L992.29,379l.58.14c3.68,7.94,27,32,47.89,24.2,20-7.46,34.93-6.86,36.11-6.81l5.62-4a10.08,10.08,0,0,0,3.94-5.8Zm-47.84-7.68c1.86-4.53,5.69-7.24,8.54-6.06s3.67,5.78,1.81,10.31-5.69,7.24-8.54,6.07S1038.61,376,1040.47,371.45Z" transform="translate(0 -182.08)"/><path class="cls-20" d="M937.48,475.33a103.21,103.21,0,0,0,12.5,2.82c41.41,6.6,61.72-9.23,77.81-16.88s42-28.6,47.25-39.22A328.78,328.78,0,0,0,1020.2,437h0l-40.55,29a4.7,4.7,0,0,1-6.73-1.33l-1.66-.46a5.12,5.12,0,0,1-1.42-.61h0L959.53,460C951.07,465.38,943.77,470.51,937.48,475.33Z" transform="translate(0 -182.08)"/><path class="cls-16" d="M992.29,379l-20,82a4.6,4.6,0,0,0,.58,3.62,4.7,4.7,0,0,0,6.73,1.33l40.55-29h0l56.67-40.46c-1.18,0-16.11-.65-36.11,6.81-20.84,7.78-44.21-16.26-47.89-24.2Z" transform="translate(0 -182.08)"/><path class="cls-12" d="M1049,365.39c-2.85-1.18-6.68,1.53-8.54,6.06s-1,9.15,1.81,10.32,6.68-1.55,8.54-6.07S1051.87,366.56,1049,365.39Z" transform="translate(0 -182.08)"/><path class="cls-17" d="M1076.87,396.52,1020.2,437A328.78,328.78,0,0,1,1075,422.05h0a280.63,280.63,0,0,1,39.77-4.33c.67-31.67-13.33-38.58-17.54-39.94a30.94,30.94,0,0,0-9,1.36l-1.88,7.57a10.08,10.08,0,0,1-3.94,5.8Z" transform="translate(0 -182.08)"/><path class="cls-18" d="M1133.84,484.25c6.16,11.66,12.22,20.3,15.46,23.32,8.31,7.71,22.15,33.87,27.49,49.37a46.52,46.52,0,0,0,2,4.88c7.86-1.21,16.3-5,22.06-14.26a39.15,39.15,0,0,0,3.78-8.09l-18.71-41.93C1168.23,493.49,1149.06,486.6,1133.84,484.25Z" transform="translate(0 -182.08)"/><path class="cls-6" d="M1169.63,562.26a75.68,75.68,0,0,0,1.54,8.36,101,101,0,0,0,17.8,5.75,50.91,50.91,0,0,1-10.2-14.55A43.68,43.68,0,0,1,1169.63,562.26Z" transform="translate(0 -182.08)"/><path class="cls-21" d="M1171.17,570.62a61.94,61.94,0,0,0,4.23,12.26s0,0,0,0c4.68,5.37,12.65,8,36.1,18.22,0,0,26.17,11,41.42,11.7,2.74-1.87,4.93-5,6.34-9.81a6.79,6.79,0,0,0,.22-1.09c-14.62,2.17-32.27-4.95-48.68-11.49A63.81,63.81,0,0,1,1189,576.37,101,101,0,0,1,1171.17,570.62Z" transform="translate(0 -182.08)"/><path class="cls-5" d="M1200.83,547.56c-5.76,9.3-14.2,13.05-22.06,14.26a50.91,50.91,0,0,0,10.2,14.55c6.06,1.13,11.35.85,11.49-3.6.63-19.91,11.91-15.38,11.91-15.38h0c-3.75-3-7.62-6.31-11.38-9.72Z" transform="translate(0 -182.08)"/><path class="cls-22" d="M1175.41,582.9c2.66,5.51,6.46,10.56,11.86,12.89,15,6.5,22,8.66,36.59,14.25,10.4,4,21.7,7.87,29.07,2.78-15.25-.65-41.42-11.7-41.42-11.7C1188.06,590.88,1180.09,588.27,1175.41,582.9Z" transform="translate(0 -182.08)"/><path class="cls-23" d="M1233.39,573.22c-4.76-3.32-12.59-9-21-15.84h0s-11.28-4.53-11.91,15.38c-.14,4.45-5.43,4.73-11.49,3.6a63.81,63.81,0,0,0,21.84,14.06c16.41,6.54,34.06,13.66,48.68,11.49.67-5.44-4.9-11.95-10.53-17h0a98.91,98.91,0,0,0-10.85-8.42S1236.34,575.29,1233.39,573.22Z" transform="translate(0 -182.08)"/><path class="cls-5" d="M1298.73,473l-1.06.11a46.83,46.83,0,0,1-.92,23.15c6.45,1.31,12.93,2.8,19.39,4.47,4-4,6.35-8.6,2.55-12.51-13.47-13.82-5.9-18.41-5.43-18.67C1308.6,470.72,1303.69,471.91,1298.73,473Z" transform="translate(0 -182.08)"/><path class="cls-6" d="M1296.75,496.21a45.29,45.29,0,0,1-4.81,10.62,74.8,74.8,0,0,0,9.07,4.27s9.34-4.65,15.13-10.42C1309.68,499,1303.2,497.52,1296.75,496.21Z" transform="translate(0 -182.08)"/><path class="cls-23" d="M1354.41,456.72a99,99,0,0,0-10.54,3.2s-2,.75-5.5,1.94c-5.51,1.89-14.66,4.86-25.08,7.62l0,0c-.47.26-8,4.85,5.43,18.67,3.8,3.91,1.49,8.48-2.55,12.51,5.47,1.38,10.91,2.9,16.3,4.52,4.21-2.47,9.31-5.52,15.67-9.24,0,0,27.44-17.27,33.75-25.19.52-3.68-.58-7.76-4.08-12.29C1373.78,453.29,1362.8,454.69,1354.41,456.72Z" transform="translate(0 -182.08)"/><path class="cls-21" d="M1316.14,500.68c-5.79,5.77-15.13,10.42-15.13,10.42a59.68,59.68,0,0,0,11.09,3.28h0c5.05-.44,10-3.05,20.33-9.18C1327.05,503.58,1321.61,502.06,1316.14,500.68Z" transform="translate(0 -182.08)"/><path class="cls-22" d="M1332.44,505.2c-10.38,6.13-15.28,8.74-20.33,9.18,6,1.11,12.35,1,17.42-2,3.34-2,6.22-3.72,8.84-5.36Z" transform="translate(0 -182.08)"/><path class="cls-22" d="M1332.44,505.2l5.93,1.84c8.45-5.26,14.22-9.32,24.23-15.81,8.84-5.73,18.1-12.18,19.26-20.46-6.31,7.92-33.75,25.19-33.75,25.19C1341.75,499.68,1336.65,502.73,1332.44,505.2Z" transform="translate(0 -182.08)"/></svg>